<?xml version="1.0" standalone="no"?>
<!DOCTYPE svg PUBLIC "-//W3C//DTD SVG 20010904//EN"
 "http://www.w3.org/TR/2001/REC-SVG-20010904/DTD/svg10.dtd">
<svg version="1.0" xmlns="http://www.w3.org/2000/svg"
 width="41.000000pt" height="39.000000pt" viewBox="0 0 41.000000 39.000000"
 preserveAspectRatio="xMidYMid meet">

<g transform="translate(0.000000,39.000000) scale(0.100000,-0.100000)"
fill="#000000" stroke="none">
<path d="M193 340 c-101 -21 -147 -97 -124 -203 6 -25 7 -56 2 -73 l-8 -30
113 -1 c110 -2 115 -1 145 25 83 70 78 199 -11 263 -33 24 -66 29 -117 19z
m114 -45 c78 -67 79 -145 4 -219 l-39 -39 -89 9 -88 9 -9 78 c-10 91 -1 122
51 167 27 24 43 30 82 30 40 0 54 -6 88 -35z"/>
<path d="M284 278 c14 -13 34 -34 45 -48 11 -14 20 -20 21 -13 0 18 -60 83
-77 83 -9 0 -6 -8 11 -22z"/>
<path d="M270 245 c18 -19 36 -32 39 -30 6 7 -50 65 -63 65 -5 0 5 -16 24 -35z"/>
<path d="M176 219 c-20 -29 -3 -77 30 -85 32 -8 74 20 74 50 0 51 -75 76 -104
35z m69 -34 c0 -27 -3 -30 -30 -30 -21 0 -31 5 -33 18 -5 25 17 49 42 45 16
-2 21 -10 21 -33z"/>
<path d="M100 158 c0 -23 58 -88 77 -88 10 0 6 8 -12 22 -15 12 -36 35 -46 52
-13 21 -19 25 -19 14z"/>
<path d="M163 125 c21 -20 42 -33 45 -29 4 3 1 9 -6 11 -7 3 -27 16 -45 30
-26 20 -24 18 6 -12z"/>
</g>
</svg>
