<?xml version="1.0" encoding="UTF-8" standalone="no" ?>
<!DOCTYPE svg PUBLIC "-//W3C//DTD SVG 1.1//EN" "http://www.w3.org/Graphics/SVG/1.1/DTD/svg11.dtd">
<svg xmlns="http://www.w3.org/2000/svg" xmlns:xlink="http://www.w3.org/1999/xlink" version="1.1" width="198" height="198" viewBox="0 0 198 198" xml:space="preserve">
<desc>Created with Fabric.js 4.6.0</desc>
<defs>
</defs>
<g transform="matrix(0.22 0 0 0.22 8.66 91.9)" id="i-CL_dGdXdR-XWzE-mbRv"  >
<path style="stroke: none; stroke-width: 1; stroke-dasharray: none; stroke-linecap: butt; stroke-dashoffset: 0; stroke-linejoin: miter; stroke-miterlimit: 4; fill: none; fill-rule: nonzero; opacity: 1;" vector-effect="non-scaling-stroke"  transform=" translate(-128, -128)" d="M 0 256 L 0 0 L 256 0 L 256 256 z" stroke-linecap="round" />
</g>
<g transform="matrix(0.17 0 0 0.17 60.18 101.9)" id="y2sVl3GbGyFyHH95USRAw"  >
<path style="stroke: rgb(206,72,72); stroke-width: 6; stroke-dasharray: none; stroke-linecap: round; stroke-dashoffset: 0; stroke-linejoin: round; stroke-miterlimit: 4; fill: none; fill-rule: nonzero; opacity: 1;" vector-effect="non-scaling-stroke"  transform=" translate(-128, -123.98)" d="M 132.4 190.7 L 182.8 222.7 C 189.3 226.79999999999998 197.3 220.7 195.4 213.2 L 180.8 155.79999999999998 C 179.99434765615547 152.55307315984666 181.1218133113918 149.13179806809498 183.70000000000002 146.99999999999997 L 228.90000000000003 109.29999999999997 C 234.80000000000004 104.39999999999996 231.80000000000004 94.49999999999997 224.10000000000002 93.99999999999997 L 165.10000000000002 90.19999999999997 C 161.81050143231312 90.00860855243522 158.94572349501868 87.88945774950511 157.8 84.79999999999997 L 135.8 29.39999999999997 C 134.60702179478702 26.120337364622827 131.4898974196962 23.937252191822203 128 23.937252191822203 C 124.51010258030382 23.937252191822203 121.392978205213 26.12033736462283 120.20000000000002 29.399999999999974 L 98.20000000000002 84.79999999999997 C 97.05427650498135 87.8894577495051 94.18949856768693 90.00860855243522 90.90000000000002 90.19999999999997 L 31.9 94 C 24.2 94.5 21.2 104.4 27.099999999999998 109.3 L 72.3 147 C 74.87818668860821 149.131798068095 76.00565234384456 152.55307315984672 75.2 155.8 L 61.7 209 C 59.400000000000006 218 69 225.3 76.7 220.4 L 123.6 190.70000000000002 C 126.2849115047819 188.9927167424033 129.71508849521808 188.9927167424033 132.4 190.7 Z" stroke-linecap="round" />
</g>
<g transform="matrix(0.17 0 0 0.17 101.2 102.08)" id="03yhfJlIf2n3FhEEvsauh"  >
<path style="stroke: rgb(206,72,72); stroke-width: 6; stroke-dasharray: none; stroke-linecap: round; stroke-dashoffset: 0; stroke-linejoin: round; stroke-miterlimit: 4; fill: none; fill-rule: nonzero; opacity: 1;" vector-effect="non-scaling-stroke"  transform=" translate(-128, -123.98)" d="M 132.4 190.7 L 182.8 222.7 C 189.3 226.79999999999998 197.3 220.7 195.4 213.2 L 180.8 155.79999999999998 C 179.99434765615547 152.55307315984666 181.1218133113918 149.13179806809498 183.70000000000002 146.99999999999997 L 228.90000000000003 109.29999999999997 C 234.80000000000004 104.39999999999996 231.80000000000004 94.49999999999997 224.10000000000002 93.99999999999997 L 165.10000000000002 90.19999999999997 C 161.81050143231312 90.00860855243522 158.94572349501868 87.88945774950511 157.8 84.79999999999997 L 135.8 29.39999999999997 C 134.60702179478702 26.120337364622827 131.4898974196962 23.937252191822203 128 23.937252191822203 C 124.51010258030382 23.937252191822203 121.392978205213 26.12033736462283 120.20000000000002 29.399999999999974 L 98.20000000000002 84.79999999999997 C 97.05427650498135 87.8894577495051 94.18949856768693 90.00860855243522 90.90000000000002 90.19999999999997 L 31.9 94 C 24.2 94.5 21.2 104.4 27.099999999999998 109.3 L 72.3 147 C 74.87818668860821 149.131798068095 76.00565234384456 152.55307315984672 75.2 155.8 L 61.7 209 C 59.400000000000006 218 69 225.3 76.7 220.4 L 123.6 190.70000000000002 C 126.2849115047819 188.9927167424033 129.71508849521808 188.9927167424033 132.4 190.7 Z" stroke-linecap="round" />
</g>
<g transform="matrix(0.17 0 0 0.17 22.3 101.72)" id="DNC7jokZGMG3qyJ2RfNef"  >
<path style="stroke: rgb(206,72,72); stroke-width: 6; stroke-dasharray: none; stroke-linecap: round; stroke-dashoffset: 0; stroke-linejoin: round; stroke-miterlimit: 4; fill: none; fill-rule: nonzero; opacity: 1;" vector-effect="non-scaling-stroke"  transform=" translate(-128, -123.98)" d="M 132.4 190.7 L 182.8 222.7 C 189.3 226.79999999999998 197.3 220.7 195.4 213.2 L 180.8 155.79999999999998 C 179.99434765615547 152.55307315984666 181.1218133113918 149.13179806809498 183.70000000000002 146.99999999999997 L 228.90000000000003 109.29999999999997 C 234.80000000000004 104.39999999999996 231.80000000000004 94.49999999999997 224.10000000000002 93.99999999999997 L 165.10000000000002 90.19999999999997 C 161.81050143231312 90.00860855243522 158.94572349501868 87.88945774950511 157.8 84.79999999999997 L 135.8 29.39999999999997 C 134.60702179478702 26.120337364622827 131.4898974196962 23.937252191822203 128 23.937252191822203 C 124.51010258030382 23.937252191822203 121.392978205213 26.12033736462283 120.20000000000002 29.399999999999974 L 98.20000000000002 84.79999999999997 C 97.05427650498135 87.8894577495051 94.18949856768693 90.00860855243522 90.90000000000002 90.19999999999997 L 31.9 94 C 24.2 94.5 21.2 104.4 27.099999999999998 109.3 L 72.3 147 C 74.87818668860821 149.131798068095 76.00565234384456 152.55307315984672 75.2 155.8 L 61.7 209 C 59.400000000000006 218 69 225.3 76.7 220.4 L 123.6 190.70000000000002 C 126.2849115047819 188.9927167424033 129.71508849521808 188.9927167424033 132.4 190.7 Z" stroke-linecap="round" />
</g>
<g transform="matrix(0.17 0 0 0.17 142.42 101.72)" id="0A1E7IiMrObRVllk6SA6f"  >
<path style="stroke: rgb(206,72,72); stroke-width: 6; stroke-dasharray: none; stroke-linecap: round; stroke-dashoffset: 0; stroke-linejoin: round; stroke-miterlimit: 4; fill: none; fill-rule: nonzero; opacity: 1;" vector-effect="non-scaling-stroke"  transform=" translate(-128, -123.98)" d="M 132.4 190.7 L 182.8 222.7 C 189.3 226.79999999999998 197.3 220.7 195.4 213.2 L 180.8 155.79999999999998 C 179.99434765615547 152.55307315984666 181.1218133113918 149.13179806809498 183.70000000000002 146.99999999999997 L 228.90000000000003 109.29999999999997 C 234.80000000000004 104.39999999999996 231.80000000000004 94.49999999999997 224.10000000000002 93.99999999999997 L 165.10000000000002 90.19999999999997 C 161.81050143231312 90.00860855243522 158.94572349501868 87.88945774950511 157.8 84.79999999999997 L 135.8 29.39999999999997 C 134.60702179478702 26.120337364622827 131.4898974196962 23.937252191822203 128 23.937252191822203 C 124.51010258030382 23.937252191822203 121.392978205213 26.12033736462283 120.20000000000002 29.399999999999974 L 98.20000000000002 84.79999999999997 C 97.05427650498135 87.8894577495051 94.18949856768693 90.00860855243522 90.90000000000002 90.19999999999997 L 31.9 94 C 24.2 94.5 21.2 104.4 27.099999999999998 109.3 L 72.3 147 C 74.87818668860821 149.131798068095 76.00565234384456 152.55307315984672 75.2 155.8 L 61.7 209 C 59.400000000000006 218 69 225.3 76.7 220.4 L 123.6 190.70000000000002 C 126.2849115047819 188.9927167424033 129.71508849521808 188.9927167424033 132.4 190.7 Z" stroke-linecap="round" />
</g>
<g transform="matrix(0.17 0 0 0.17 180.48 101.72)" id="woE41ct7_A1v4ssYjEjRo"  >
<path style="stroke: rgb(206,72,72); stroke-width: 6; stroke-dasharray: none; stroke-linecap: round; stroke-dashoffset: 0; stroke-linejoin: round; stroke-miterlimit: 4; fill: none; fill-rule: nonzero; opacity: 1;" vector-effect="non-scaling-stroke"  transform=" translate(-128, -123.98)" d="M 132.4 190.7 L 182.8 222.7 C 189.3 226.79999999999998 197.3 220.7 195.4 213.2 L 180.8 155.79999999999998 C 179.99434765615547 152.55307315984666 181.1218133113918 149.13179806809498 183.70000000000002 146.99999999999997 L 228.90000000000003 109.29999999999997 C 234.80000000000004 104.39999999999996 231.80000000000004 94.49999999999997 224.10000000000002 93.99999999999997 L 165.10000000000002 90.19999999999997 C 161.81050143231312 90.00860855243522 158.94572349501868 87.88945774950511 157.8 84.79999999999997 L 135.8 29.39999999999997 C 134.60702179478702 26.120337364622827 131.4898974196962 23.937252191822203 128 23.937252191822203 C 124.51010258030382 23.937252191822203 121.392978205213 26.12033736462283 120.20000000000002 29.399999999999974 L 98.20000000000002 84.79999999999997 C 97.05427650498135 87.8894577495051 94.18949856768693 90.00860855243522 90.90000000000002 90.19999999999997 L 31.9 94 C 24.2 94.5 21.2 104.4 27.099999999999998 109.3 L 72.3 147 C 74.87818668860821 149.131798068095 76.00565234384456 152.55307315984672 75.2 155.8 L 61.7 209 C 59.400000000000006 218 69 225.3 76.7 220.4 L 123.6 190.70000000000002 C 126.2849115047819 188.9927167424033 129.71508849521808 188.9927167424033 132.4 190.7 Z" stroke-linecap="round" />
</g>
</svg>