<?xml version="1.0" standalone="no"?>
<!DOCTYPE svg PUBLIC "-//W3C//DTD SVG 20010904//EN"
 "http://www.w3.org/TR/2001/REC-SVG-20010904/DTD/svg10.dtd">
<svg version="1.0" xmlns="http://www.w3.org/2000/svg"
 width="157.000000pt" height="35.000000pt" viewBox="0 0 157.000000 35.000000"
 preserveAspectRatio="xMidYMid meet">

<g transform="translate(0.000000,35.000000) scale(0.100000,-0.100000)"
fill="#000000" stroke="none">
<path d="M1354 261 c-39 -24 -58 -69 -50 -118 3 -21 7 -42 8 -48 0 -5 -2 -21
-7 -34 -7 -22 -5 -23 16 -17 13 4 31 7 39 6 8 -1 39 -3 68 -4 49 -1 56 2 83
32 24 27 29 41 29 83 0 45 -4 55 -34 85 -28 28 -41 34 -77 34 -25 0 -57 -8
-75 -19z m142 -25 c28 -28 34 -42 34 -76 0 -35 -6 -48 -35 -77 -32 -32 -39
-35 -78 -29 -23 4 -55 7 -70 7 -22 0 -27 3 -23 16 4 8 1 30 -5 48 -15 42 -5
81 31 116 42 43 100 41 146 -5z"/>
<path d="M1463 234 c15 -8 27 -18 27 -22 0 -13 29 -48 30 -35 0 19 -50 73 -68
73 -11 -1 -8 -6 11 -16z"/>
<path d="M1442 219 c10 -5 24 -19 33 -32 8 -12 15 -16 15 -9 0 16 -37 52 -52
52 -8 0 -6 -5 4 -11z"/>
<path d="M1403 199 c-41 -15 -27 -79 18 -79 34 0 55 30 40 59 -13 24 -31 30
-58 20z m42 -39 c0 -18 -6 -26 -23 -28 -13 -2 -25 3 -28 12 -10 26 4 48 28 44
17 -2 23 -10 23 -28z"/>
<path d="M1331 137 c-1 -23 43 -67 66 -66 14 0 15 2 3 6 -23 9 -51 36 -61 58
-7 18 -8 18 -8 2z"/>
<path d="M1359 133 c12 -24 49 -48 59 -39 3 3 0 6 -7 6 -6 0 -24 12 -38 28
-21 22 -24 23 -14 5z"/>
<path d="M402 229 c2 -6 8 -10 13 -10 5 0 11 4 13 10 2 6 -4 11 -13 11 -9 0
-15 -5 -13 -11z"/>
<path d="M473 233 c-7 -2 -13 -11 -13 -18 0 -7 -6 -16 -12 -19 -10 -5 -10 -7
0 -12 6 -3 12 -21 12 -40 0 -19 5 -34 10 -34 6 0 10 15 10 34 0 49 27 56 46
11 18 -44 18 -55 -1 -55 -8 0 -15 -5 -15 -11 0 -6 10 -9 22 -7 31 4 88 118 60
118 -5 0 -14 -12 -21 -27 l-13 -28 -14 28 c-10 19 -23 27 -42 27 -24 1 -25 2
-10 14 25 18 11 32 -19 19z"/>
<path d="M767 234 c-8 -8 1 -24 14 -24 5 0 9 7 9 15 0 15 -12 20 -23 9z"/>
<path d="M15 216 c-16 -12 -18 -18 -9 -33 6 -10 21 -20 33 -23 31 -7 22 -26
-11 -22 -30 2 -38 -12 -12 -22 26 -10 52 -7 68 9 20 21 11 41 -26 54 -31 11
-30 34 1 29 10 -2 19 2 20 7 3 16 -42 17 -64 1z"/>
<path d="M670 170 c0 -33 4 -60 10 -60 6 0 10 9 10 20 0 15 7 20 25 20 16 0
25 6 25 15 0 9 -9 15 -25 15 -16 0 -25 6 -25 15 0 10 10 15 30 15 17 0 30 5
30 10 0 6 -18 10 -40 10 l-40 0 0 -60z"/>
<path d="M990 215 c0 -9 -9 -15 -25 -15 -35 0 -51 -34 -31 -65 12 -19 24 -24
51 -23 l35 1 0 59 c0 45 -3 58 -15 58 -8 0 -15 -7 -15 -15z m0 -54 c0 -11 -5
-23 -11 -27 -15 -9 -33 12 -26 30 9 23 37 20 37 -3z"/>
<path d="M331 204 c-9 -11 -10 -18 -3 -23 5 -3 12 -20 14 -36 2 -22 9 -31 26
-33 25 -4 30 13 7 22 -18 7 -20 43 -3 48 9 3 8 9 -4 21 -20 20 -19 20 -37 1z"/>
<path d="M110 140 c0 -47 3 -60 15 -60 8 0 15 9 15 21 0 11 5 17 10 14 16 -10
48 5 55 25 11 35 -12 60 -55 60 l-40 0 0 -60z m65 15 c0 -28 -29 -25 -33 3 -3
19 0 23 15 20 10 -2 18 -12 18 -23z"/>
<path d="M230 186 c-20 -25 -8 -60 24 -71 24 -8 31 -6 47 13 18 23 16 50 -5
64 -18 13 -53 9 -66 -6z m57 -22 c3 -8 1 -20 -5 -26 -15 -15 -43 8 -35 28 7
19 32 18 40 -2z"/>
<path d="M402 158 c4 -59 28 -63 28 -4 0 35 -4 46 -16 46 -12 0 -14 -9 -12
-42z"/>
<path d="M770 155 c0 -25 5 -45 10 -45 6 0 10 20 10 45 0 25 -4 45 -10 45 -5
0 -10 -20 -10 -45z"/>
<path d="M820 153 c0 -50 17 -59 22 -11 2 22 9 34 21 36 14 3 17 -4 17 -33 0
-40 22 -46 28 -7 6 38 -15 62 -53 60 -34 -1 -35 -2 -35 -45z"/>
<path d="M1052 188 c-21 -21 -14 -57 12 -70 26 -11 56 -5 56 12 0 6 -10 8 -25
4 -15 -4 -25 -2 -25 5 0 6 14 11 30 11 18 0 30 5 30 13 0 19 -21 37 -45 37
-12 0 -26 -5 -33 -12z m48 -18 c0 -5 -7 -10 -15 -10 -8 0 -15 5 -15 10 0 6 7
10 15 10 8 0 15 -4 15 -10z"/>
<path d="M1150 154 c0 -24 5 -44 10 -44 6 0 10 14 10 30 0 18 6 33 15 36 23 9
18 22 -10 22 -23 0 -25 -4 -25 -44z"/>
</g>
</svg>
